{
    "asset" : {
        "generator" : "Khronos glTF Blender I/O v1.7.33",
        "version" : "2.0"
    },
    "scene" : 0,
    "scenes" : [
        {
            "name" : "Scene",
            "nodes" : [
                1
            ]
        }
    ],
    "nodes" : [
        {
            "mesh" : 0,
            "name" : "Top (3)",
            "scale" : [
                10,
                10,
                10
            ]
        },
        {
            "children" : [
                0
            ],
            "name" : "Frame01-BasicRight v8",
            "rotation" : [
                0.7071068286895752,
                0,
                0,
                0.7071067094802856
            ],
            "scale" : [
                0.0010000000474974513,
                0.0010000000474974513,
                0.0010000000474974513
            ]
        }
    ],
    "materials" : [
        {
            "doubleSided" : true,
            "name" : "Steel - Satin",
            "pbrMetallicRoughness" : {
                "baseColorFactor" : [
                    0.6274510025978088,
                    0.6274510025978088,
                    0.6274510025978088,
                    1
                ],
                "roughnessFactor" : 0.5527864098548889
            }
        }
    ],
    "meshes" : [
        {
            "name" : "Top (3)",
            "primitives" : [
                {
                    "attributes" : {
                        "POSITION" : 0,
                        "NORMAL" : 1,
                        "TEXCOORD_0" : 2
                    },
                    "indices" : 3,
                    "material" : 0
                }
            ]
        }
    ],
    "accessors" : [
        {
            "bufferView" : 0,
            "componentType" : 5126,
            "count" : 804,
            "max" : [
                17.89999008178711,
                0.5830817222595215,
                21.65001106262207
            ],
            "min" : [
                -17.900009155273438,
                -1.2169183492660522,
                -21.649986267089844
            ],
            "type" : "VEC3"
        },
        {
            "bufferView" : 1,
            "componentType" : 5126,
            "count" : 804,
            "type" : "VEC3"
        },
        {
            "bufferView" : 2,
            "componentType" : 5126,
            "count" : 804,
            "type" : "VEC2"
        },
        {
            "bufferView" : 3,
            "componentType" : 5123,
            "count" : 2424,
            "type" : "SCALAR"
        }
    ],
    "bufferViews" : [
        {
            "buffer" : 0,
            "byteLength" : 9648,
            "byteOffset" : 0
        },
        {
            "buffer" : 0,
            "byteLength" : 9648,
            "byteOffset" : 9648
        },
        {
            "buffer" : 0,
            "byteLength" : 6432,
            "byteOffset" : 19296
        },
        {
            "buffer" : 0,
            "byteLength" : 4848,
            "byteOffset" : 25728
        }
    ],
    "buffers" : [
        {
            "byteLength" : 30576,
            "uri" : "data:application/octet-stream;base64,"
        }
    ]
}
